<svg id="visual" viewBox="0 0 2000 1000" width="2000" height="1000" xmlns="http://www.w3.org/2000/svg" xmlns:xlink="http://www.w3.org/1999/xlink" version="1.1"><rect x="0" y="0" width="2000" height="1000" fill="#f7dbcb"></rect><g fill="#FFFFFF"><path d="M0 -44.4L10 -13.7L42.2 -13.7L16.1 5.2L26.1 35.9L0 16.9L-26.1 35.9L-16.1 5.2L-42.2 -13.7L-10 -13.7Z" transform="translate(1874 282)"></path><path d="M0 -19.8L4.4 -6.1L18.9 -6.1L7.2 2.3L11.7 16L0 7.6L-11.7 16L-7.2 2.3L-18.9 -6.1L-4.4 -6.1Z" transform="translate(443 786)"></path><path d="M0 -31.1L7 -9.6L29.6 -9.6L11.3 3.7L18.3 25.2L0 11.9L-18.3 25.2L-11.3 3.7L-29.6 -9.6L-7 -9.6Z" transform="translate(1623 516)"></path><path d="M0 -39.6L8.9 -12.2L37.7 -12.2L14.4 4.7L23.3 32.1L0 15.1L-23.3 32.1L-14.4 4.7L-37.7 -12.2L-8.9 -12.2Z" transform="translate(737 872)"></path><path d="M0 -39.6L8.9 -12.2L37.7 -12.2L14.4 4.7L23.3 32.1L0 15.1L-23.3 32.1L-14.4 4.7L-37.7 -12.2L-8.9 -12.2Z" transform="translate(1340 864)"></path><path d="M0 -40.6L9.1 -12.5L38.6 -12.5L14.7 4.8L23.9 32.8L0 15.5L-23.9 32.8L-14.7 4.8L-38.6 -12.5L-9.1 -12.5Z" transform="translate(210 117)"></path><path d="M0 -24.5L5.5 -7.6L23.3 -7.6L8.9 2.9L14.4 19.9L0 9.4L-14.4 19.9L-8.9 2.9L-23.3 -7.6L-5.5 -7.6Z" transform="translate(1054 483)"></path><path d="M0 -26.4L5.9 -8.2L25.1 -8.2L9.6 3.1L15.5 21.4L0 10.1L-15.5 21.4L-9.6 3.1L-25.1 -8.2L-5.9 -8.2Z" transform="translate(10 351)"></path><path d="M0 -35.9L8.1 -11.1L34.1 -11.1L13 4.2L21.1 29L0 13.7L-21.1 29L-13 4.2L-34.1 -11.1L-8.1 -11.1Z" transform="translate(616 983)"></path><path d="M0 -33L7.4 -10.2L31.4 -10.2L12 3.9L19.4 26.7L0 12.6L-19.4 26.7L-12 3.9L-31.4 -10.2L-7.4 -10.2Z" transform="translate(1302 700)"></path><path d="M0 -25.5L5.7 -7.9L24.2 -7.9L9.3 3L15 20.6L0 9.7L-15 20.6L-9.3 3L-24.2 -7.9L-5.7 -7.9Z" transform="translate(1845 457)"></path><path d="M0 -42.5L9.5 -13.1L40.4 -13.1L15.4 5L25 34.4L0 16.2L-25 34.4L-15.4 5L-40.4 -13.1L-9.5 -13.1Z" transform="translate(742 648)"></path><path d="M0 -37.8L8.5 -11.7L35.9 -11.7L13.7 4.5L22.2 30.5L0 14.4L-22.2 30.5L-13.7 4.5L-35.9 -11.7L-8.5 -11.7Z" transform="translate(1728 610)"></path><path d="M0 -34.9L7.8 -10.8L33.2 -10.8L12.7 4.1L20.5 28.3L0 13.3L-20.5 28.3L-12.7 4.1L-33.2 -10.8L-7.8 -10.8Z" transform="translate(49 138)"></path></g></svg>